<?xml version="1.0" standalone="no"?>
<!DOCTYPE svg PUBLIC "-//W3C//DTD SVG 20010904//EN"
 "http://www.w3.org/TR/2001/REC-SVG-20010904/DTD/svg10.dtd">
<svg version="1.0" xmlns="http://www.w3.org/2000/svg"
 width="700.000000pt" height="700.000000pt" viewBox="0 0 700.000000 700.000000"
 preserveAspectRatio="xMidYMid meet">
<metadata>
Created by potrace 1.11, written by Peter Selinger 2001-2013
</metadata>
<g transform="translate(0.000000,700.000000) scale(0.100000,-0.100000)"
fill="#000000" stroke="none">
<path d="M3457 6234 c-1 -1 -58 -4 -127 -8 -69 -3 -136 -8 -150 -10 -14 -3
-43 -7 -65 -10 -83 -10 -213 -36 -305 -61 -52 -14 -102 -27 -110 -29 -8 -3
-65 -22 -125 -44 -531 -190 -1018 -566 -1329 -1026 -104 -154 -266 -452 -266
-490 0 -6 -4 -16 -9 -21 -14 -16 -90 -241 -116 -345 -29 -114 -53 -234 -60
-293 -3 -23 -7 -58 -10 -77 -27 -218 -23 -521 10 -722 7 -43 15 -85 20 -117
22 -128 83 -335 147 -496 42 -107 138 -302 169 -346 10 -15 19 -30 19 -34 0
-20 182 -277 265 -375 74 -87 301 -306 388 -373 248 -193 521 -343 807 -442
100 -35 296 -88 370 -100 19 -3 60 -10 90 -15 144 -23 258 -32 435 -32 244 1
432 24 665 82 114 28 346 104 365 120 6 4 21 11 35 15 35 10 224 105 312 156
207 121 370 249 558 438 419 422 679 941 764 1526 34 229 38 510 11 718 -10
78 -15 114 -20 137 -3 14 -8 41 -11 60 -25 143 -102 396 -166 545 -53 124
-148 308 -160 313 -5 2 -8 8 -8 14 0 22 -179 277 -265 378 -77 90 -302 307
-388 373 -196 153 -434 294 -642 380 -143 60 -374 131 -490 152 -42 7 -64 12
-105 20 -14 3 -45 8 -70 11 -25 3 -56 7 -70 10 -39 6 -357 23 -363 18z"/>
</g>
</svg>
